<svg xmlns="http://www.w3.org/2000/svg" version="1.1" xmlns:xlink="http://www.w3.org/1999/xlink" xmlns:svgjs="http://svgjs.com/svgjs" width="1440" height="560" preserveAspectRatio="none" viewBox="0 0 1440 560"><g mask="url(&quot;#SvgjsMask1000&quot;)" fill="none"><rect width="1440" height="560" x="0" y="0" fill="#0e2a47"></rect><path d="M -567.5869303174244,65 C -471.59,147 -279.59,437.4 -87.58693031742439,475 C 104.41,512.6 200.41,267 392.4130696825756,253 C 584.41,239 680.41,432 872.4130696825756,405 C 1064.41,378 1238.9,104.8 1352.4130696825755,118 C 1465.93,131.2 1422.48,400.4 1440,471" stroke="rgba(51, 121, 194, 0.58)" stroke-width="2"></path><path d="M -381.29009890314273,501 C -285.29,427 -93.29,162.6 98.70990109685724,131 C 290.71,99.4 386.71,351.6 578.7099010968573,343 C 770.71,334.4 866.71,76.6 1058.7099010968573,88 C 1250.71,99.4 1462.45,365.6 1538.7099010968573,400 C 1614.97,434.4 1459.74,288 1440,260" stroke="rgba(51, 121, 194, 0.58)" stroke-width="2"></path><path d="M -215.59881026363223,493 C -119.6,405.6 72.4,77 264.40118973636777,56 C 456.4,35 552.4,351 744.4011897363678,388 C 936.4,425 1032.4,262.2 1224.4011897363678,241 C 1416.4,219.8 1661.28,280.6 1704.4011897363678,282 C 1747.52,283.4 1492.88,254.8 1440,248" stroke="rgba(51, 121, 194, 0.58)" stroke-width="2"></path><path d="M -721.756431400652,394 C -625.76,352.6 -433.76,202.2 -241.75643140065205,187 C -49.76,171.8 46.24,306.6 238.24356859934795,318 C 430.24,329.4 526.24,221.2 718.243568599348,244 C 910.24,266.8 1053.89,458.4 1198.243568599348,432 C 1342.59,405.6 1391.65,176 1440,112" stroke="rgba(51, 121, 194, 0.58)" stroke-width="2"></path></g><defs><mask id="SvgjsMask1000"><rect width="1440" height="560" fill="#ffffff"></rect></mask></defs></svg>